<svg version="1.1" id="Layer_1" xmlns="http://www.w3.org/2000/svg" xmlns:xlink="http://www.w3.org/1999/xlink" x="0px" y="0px"
	 width="100%" viewBox="0 0 2078 505" enable-background="new 0 0 2078 505" xml:space="preserve">
<path fill="#F6D13C" opacity="1.000000" stroke="none" 
	d="
M408.853241,240.022141 
	C411.838989,239.264999 414.824768,238.507874 418.500580,237.821442 
	C419.745453,237.559021 420.300262,237.225891 420.855072,236.892761 
	C427.716919,234.998657 434.578735,233.104553 441.967194,231.418518 
	C442.951782,231.413452 443.409760,231.200272 443.867706,230.987091 
	C444.671967,230.710556 445.476196,230.434006 446.799133,230.327774 
	C447.581329,230.586746 447.776489,230.492477 447.903229,230.215302 
	C449.716125,229.836426 451.528992,229.457550 453.822510,229.271988 
	C454.303162,229.465302 454.667450,229.466980 454.667450,229.466980 
	C454.667450,229.466980 454.915894,229.161316 454.915894,229.161316 
	C457.066833,228.812912 459.217743,228.464493 462.033722,228.407043 
	C464.104309,228.498672 465.509827,228.299332 466.915375,228.099991 
	C471.050049,227.793976 475.184692,227.487961 480.032166,227.469940 
	C491.574677,230.194778 502.382050,232.921814 513.624512,231.942474 
	C515.759216,231.756531 517.824585,230.774567 521.169434,229.794327 
	C518.768188,227.157303 517.376038,225.432648 515.786804,223.914368 
	C503.538788,212.213058 490.661743,201.069733 483.522583,185.094101 
	C474.008759,163.804596 472.700867,142.612625 483.781525,121.420303 
	C485.611633,117.920113 487.213074,114.300339 488.920166,110.735825 
	C495.091766,102.820847 503.737915,98.296783 512.706665,94.873718 
	C543.090881,83.277069 572.028503,86.089149 598.030151,106.294083 
	C612.511414,117.546913 620.292297,133.367554 623.519897,151.701050 
	C620.981262,154.647461 618.185181,156.828888 616.768311,159.692642 
	C613.618530,166.059006 611.287048,172.850464 605.239685,177.282471 
	C602.713501,179.133881 600.018066,180.791992 597.680542,182.856155 
	C590.711975,189.009659 591.660522,195.556122 600.227478,200.002640 
	C600.441711,200.044800 600.877869,200.066620 601.009888,200.282852 
	C601.422791,200.678284 601.703796,200.857483 602.237061,201.298111 
	C605.401306,202.425339 608.313232,203.291122 611.225159,204.156891 
	C608.070129,207.961380 605.105957,211.945969 601.720032,215.532501 
	C594.865601,222.793060 594.393921,231.196793 600.960632,238.665314 
	C604.571838,242.772430 608.431519,246.666901 612.273438,250.564331 
	C633.755188,272.356506 641.969666,298.267517 635.985474,328.871887 
	C634.215576,330.663422 632.983948,331.997314 631.812195,333.381897 
	C627.741211,338.192352 624.413757,344.001587 619.480835,347.635529 
	C609.507202,354.982880 599.201355,362.275452 588.073914,367.579498 
	C563.654053,379.219635 537.236816,383.471039 510.430756,384.903412 
	C489.610809,386.015930 468.993927,383.517426 448.714233,378.881622 
	C421.337189,372.623322 396.725616,360.572235 376.604004,340.790314 
	C367.912262,332.245300 360.269592,322.456360 353.185913,312.496033 
	C343.783173,299.274933 337.572388,284.408234 333.954132,268.503082 
	C332.771210,263.303406 331.072296,258.221130 329.609375,253.085175 
	C329.683960,242.783356 330.048157,232.524979 334.895538,223.072327 
	C339.432678,214.224579 347.293945,212.746353 354.277039,219.816101 
	C362.191559,227.828781 370.677429,234.838745 381.826416,238.947815 
	C382.176025,239.305771 382.534058,239.481110 382.534058,239.481110 
	C382.534058,239.481110 382.886261,239.244141 382.886261,239.244141 
	C383.736023,239.341324 384.585785,239.438507 385.868225,239.939392 
	C386.801025,240.343002 387.301178,240.342926 387.801300,240.342850 
	C389.325897,240.497696 390.850494,240.652542 393.012848,241.205322 
	C396.073181,241.431976 398.495758,241.260712 400.918335,241.089417 
	C402.753357,240.757523 404.588409,240.425629 406.942261,240.339981 
	C407.925171,240.398193 408.389191,240.210159 408.853241,240.022141 
M460.679443,360.969727 
	C470.209961,361.326691 479.797241,362.512756 489.258972,361.864838 
	C507.893860,360.588776 523.668091,352.993927 535.508850,338.035309 
	C541.620911,330.313721 543.916626,321.263641 546.198425,311.305908 
	C545.046143,311.975159 544.608643,312.072601 544.524048,312.300842 
	C539.125732,326.869415 527.843811,335.668976 514.345886,341.605316 
	C499.232330,348.252289 483.331268,350.276520 466.727203,348.167023 
	C448.357239,345.833160 431.597717,339.847107 416.795380,328.792786 
	C411.986664,325.201660 407.867981,320.686554 403.433685,316.594055 
	C402.864410,319.078949 402.897552,321.872162 404.126556,323.962128 
	C409.591156,333.255219 417.145660,340.658966 426.135162,346.555206 
	C436.493835,353.349579 447.697144,358.216919 460.679443,360.969727 
M530.975403,278.403900 
	C534.859558,278.094757 532.499451,275.687378 531.771545,274.906555 
	C528.186646,271.061096 524.791382,266.766815 520.477844,263.921875 
	C505.429413,253.996948 488.689331,252.774109 471.643555,256.807953 
	C460.841980,259.364105 450.327545,263.182251 439.758118,266.658752 
	C426.578522,270.993774 413.217285,272.472015 399.511566,269.920166 
	C395.938171,269.254822 392.388519,268.461914 388.827942,267.727600 
	C388.645264,268.270111 388.462616,268.812622 388.279938,269.355133 
	C389.861542,270.399445 391.367340,271.588165 393.036957,272.464844 
	C404.727844,278.603302 417.360138,279.424042 429.928650,277.279877 
	C440.331116,275.505188 450.485992,272.149902 460.657471,269.176544 
	C485.221741,261.995941 508.783936,262.056488 530.975403,278.403900 
M580.062500,139.274414 
	C574.697021,136.031006 569.727844,136.127777 565.872314,139.550735 
	C562.085022,142.913101 560.943176,148.956772 563.194214,153.725983 
	C565.347473,158.288071 570.216064,161.360062 574.990295,159.799179 
	C578.099854,158.782562 581.528137,156.261688 583.059937,153.456924 
	C585.606506,148.794098 584.505188,143.789566 580.062500,139.274414 
M405.912811,310.019348 
	C410.777191,310.399536 415.641571,310.779724 420.505920,311.159882 
	C420.654083,310.524231 420.802216,309.888550 420.950378,309.252899 
	C405.757599,302.871216 393.437469,293.262817 385.658997,278.472229 
	C387.245544,292.078735 394.796997,301.856323 405.912811,310.019348 
z"/>
<path fill="#F5CF3F" opacity="1.000000" stroke="none" 
	d="
M801.588989,318.619781 
	C775.777039,334.482452 743.070618,322.917908 732.170776,294.431213 
	C724.251343,273.733856 724.466492,253.075241 732.567017,232.520569 
	C743.241516,205.434509 777.092773,194.012253 801.746460,209.279144 
	C805.039917,211.318619 807.555176,214.614746 811.078308,217.940125 
	C811.201477,215.815811 811.383606,214.134445 811.383179,212.453110 
	C811.379456,197.453537 811.459961,182.452255 811.241455,167.455475 
	C811.181335,163.331802 812.475281,161.880173 816.657227,162.030334 
	C824.313538,162.305252 831.990173,162.213806 839.652405,162.027924 
	C842.956177,161.947784 843.918945,163.160110 843.913818,166.387695 
	C843.833557,216.886688 843.824402,267.385895 843.919434,317.884827 
	C843.926697,321.740967 842.388184,322.745728 838.859314,322.660309 
	C831.530334,322.482880 824.190369,322.459106 816.862610,322.656525 
	C813.329712,322.751770 812.010315,321.436035 812.298035,317.991150 
	C812.485046,315.751862 812.333252,313.484253 812.333252,309.716156 
	C808.050964,313.266144 804.960327,315.828217 801.588989,318.619781 
M797.930664,231.405884 
	C785.005554,225.163956 771.159668,228.880264 764.513550,241.500824 
	C756.921814,255.917206 757.156372,271.038605 764.232910,285.663361 
	C768.995667,295.506348 777.493225,299.930115 788.382019,298.911865 
	C799.574219,297.865265 807.753296,292.160675 810.328491,280.985016 
	C812.018188,273.652405 812.602783,265.880188 812.397095,258.339935 
	C812.101990,247.522079 808.916199,237.640717 797.930664,231.405884 
z"/>
<path fill="#F5CF3F" opacity="1.000000" stroke="none" 
	d="
M1674.855225,322.213440 
	C1669.796753,318.812958 1665.078979,315.577423 1659.610352,311.826965 
	C1659.610352,316.429688 1659.609375,320.350159 1659.610474,324.270660 
	C1659.613770,335.761841 1659.451660,347.256775 1659.708374,358.742279 
	C1659.803223,362.978363 1658.326050,364.250244 1654.247314,364.104889 
	C1647.095459,363.850098 1639.919922,363.848053 1632.769653,364.128448 
	C1628.987427,364.276764 1627.926392,362.980164 1627.944946,359.297455 
	C1628.056885,337.148499 1628.011719,314.998169 1627.915039,292.848785 
	C1627.812744,269.392303 1627.561646,245.936447 1627.456909,222.479935 
	C1627.437622,218.160751 1627.929443,213.840454 1627.950317,209.519531 
	C1627.963257,206.857224 1629.136230,206.083847 1631.609497,206.115158 
	C1639.269165,206.212128 1646.932739,206.275635 1654.590454,206.129471 
	C1657.946533,206.065399 1659.027344,207.494980 1658.829346,210.630417 
	C1658.666626,213.205063 1658.796021,215.798157 1658.796021,219.461716 
	C1660.461426,217.930771 1661.367554,217.290436 1662.033081,216.457809 
	C1676.428589,198.446640 1703.602173,199.616821 1719.274902,209.834930 
	C1733.071533,218.829926 1739.639526,232.095398 1742.443848,247.362305 
	C1745.556030,264.305389 1744.546265,281.030151 1737.393066,297.232025 
	C1726.896484,321.006805 1699.371826,332.382599 1674.855225,322.213440 
M1711.180786,265.452423 
	C1711.629272,256.963898 1710.085449,248.871735 1706.101929,241.340363 
	C1697.828735,225.698837 1674.745850,223.928207 1665.459229,238.675262 
	C1656.015259,253.671967 1655.124390,269.923584 1663.079956,285.783417 
	C1671.351562,302.272980 1694.806274,303.991852 1705.041870,289.219452 
	C1709.722046,282.464752 1710.980225,274.518982 1711.180786,265.452423 
z"/>
<path fill="#F5D03F" opacity="1.000000" stroke="none" 
	d="
M1152.999756,289.670349 
	C1153.167969,298.592957 1153.305420,307.080841 1153.574463,315.564545 
	C1153.776123,321.926331 1153.280640,322.567657 1147.134521,322.585297 
	C1140.303223,322.604889 1133.463867,322.383484 1126.643677,322.657867 
	C1122.548950,322.822601 1121.171265,321.511810 1121.181763,317.312347 
	C1121.279297,278.158295 1121.189453,239.003830 1121.151245,199.849472 
	C1121.140381,188.686569 1121.248291,177.521240 1121.033936,166.362152 
	C1120.962402,162.637482 1122.539795,161.902878 1125.808838,161.982895 
	C1133.302490,162.166321 1140.810425,162.264572 1148.297852,161.993057 
	C1152.164795,161.852829 1153.067383,163.295914 1153.049561,166.900925 
	C1152.929443,191.059525 1152.983643,215.219101 1153.029907,239.378265 
	C1153.034180,241.608383 1153.378540,243.837845 1153.679810,247.441605 
	C1156.158936,245.350662 1157.726196,244.269012 1159.003174,242.913757 
	C1169.278076,232.008820 1179.575439,221.122879 1189.685425,210.065994 
	C1192.510376,206.976410 1195.526978,205.744644 1199.731445,205.870346 
	C1209.501587,206.162399 1219.286621,205.963364 1230.303589,205.963364 
	C1228.654297,208.025620 1227.869873,209.177170 1226.919067,210.169128 
	C1215.969360,221.592392 1204.975586,232.973480 1194.034058,244.404556 
	C1188.441650,250.247116 1188.383789,250.367340 1192.861816,257.076111 
	C1206.258667,277.146423 1219.737549,297.161926 1233.172974,317.206482 
	C1234.073120,318.549500 1234.878174,319.956360 1236.382324,322.395660 
	C1228.180786,322.395660 1220.943359,322.420380 1213.706299,322.380493 
	C1211.546631,322.368591 1209.265259,321.667389 1207.250610,322.154510 
	C1198.951172,324.161255 1194.965942,319.679565 1191.186035,313.154175 
	C1184.182129,301.063202 1176.451538,289.392670 1168.992310,277.566772 
	C1168.216064,276.336029 1167.229614,275.237976 1165.938354,273.553528 
	C1161.157593,278.731628 1154.979248,282.137054 1152.999756,289.670349 
z"/>
<path fill="#F5CF3E" opacity="1.000000" stroke="none" 
	d="
M1470.067627,303.065674 
	C1455.466431,321.945129 1435.795898,327.156189 1413.499146,325.373260 
	C1402.519409,324.495361 1392.270020,321.107788 1383.351929,314.500641 
	C1369.217651,304.028961 1362.358398,289.396423 1360.630981,272.311401 
	C1358.654907,252.766144 1362.853149,234.770340 1376.593506,220.053833 
	C1389.995483,205.699615 1407.393799,201.575134 1426.231201,202.641403 
	C1440.340576,203.440018 1453.312134,207.660828 1463.856201,217.754028 
	C1474.042969,227.505264 1479.812012,239.640671 1481.385864,253.327148 
	C1483.406860,270.900940 1481.191650,287.920288 1470.067627,303.065674 
M1406.597290,296.043213 
	C1421.932007,304.230804 1438.874146,299.383209 1445.013672,284.630493 
	C1450.490845,271.469666 1450.536743,257.973419 1445.230225,244.713150 
	C1440.860474,233.793655 1432.289795,228.218277 1420.700684,228.372910 
	C1409.572021,228.521393 1400.809082,233.755417 1397.335938,244.619370 
	C1394.948975,252.085953 1393.348877,260.197601 1393.490234,267.982941 
	C1393.682373,278.569214 1396.612915,288.776306 1406.597290,296.043213 
z"/>
<path fill="#F5CF3F" opacity="1.000000" stroke="none" 
	d="
M905.092407,325.830750 
	C881.110474,325.186829 866.214844,311.135803 865.398560,287.463470 
	C864.544617,262.700073 864.638367,237.902084 864.469788,213.118179 
	C864.422058,206.104218 864.665955,206.099365 871.875366,206.114594 
	C878.536682,206.128677 885.207092,206.367523 891.855774,206.086777 
	C895.774658,205.921326 897.055420,207.122986 897.011597,211.117249 
	C896.801514,230.266495 896.798767,249.419006 896.876831,268.569733 
	C896.897766,273.711395 897.175781,278.888580 897.846741,283.982117 
	C898.748718,290.828308 902.741455,295.559631 909.267273,297.825500 
	C925.200745,303.357910 939.927246,293.357727 940.284485,276.507416 
	C940.608643,261.215393 940.338562,245.911545 940.435303,230.613586 
	C940.479492,223.627747 940.846558,216.644226 940.920288,209.658112 
	C940.946960,207.137100 941.819519,206.087082 944.435486,206.117264 
	C952.594360,206.211395 960.757080,206.232239 968.914673,206.083160 
	C973.190063,206.005035 972.665283,208.866104 972.668030,211.515823 
	C972.696228,239.160141 972.722229,266.804474 972.735840,294.448792 
	C972.739563,301.942688 972.511353,309.442596 972.750793,316.928223 
	C972.893066,321.374634 971.109619,322.790527 966.851929,322.629395 
	C960.533203,322.390289 954.192200,322.431183 947.871643,322.658386 
	C943.670654,322.809418 941.557983,321.492584 942.098694,316.969177 
	C942.344482,314.913086 942.140442,312.803223 941.609741,310.316620 
	C931.741760,321.059601 919.821533,326.230469 905.092407,325.830750 
z"/>
<path fill="#F4CE3E" opacity="1.000000" stroke="none" 
	d="
M1310.003662,299.253601 
	C1317.606079,292.852234 1316.913818,284.559967 1308.081909,280.985748 
	C1300.114502,277.761444 1291.514771,276.131409 1283.277710,273.532623 
	C1275.834595,271.184357 1268.204590,269.112579 1261.186035,265.798676 
	C1245.241577,258.270386 1239.831055,238.006271 1248.972900,222.757065 
	C1254.052002,214.284958 1261.495361,209.125000 1270.732300,206.329941 
	C1289.913818,200.525635 1308.818970,200.304413 1326.874390,210.156677 
	C1337.165161,215.771973 1341.905518,225.308792 1343.845825,236.470230 
	C1344.303101,239.101547 1343.349365,240.619339 1340.415527,240.591629 
	C1332.755005,240.519272 1325.082764,240.741806 1317.441040,240.347412 
	C1315.597046,240.252213 1313.661255,238.434555 1312.103394,237.035248 
	C1308.989624,234.238541 1306.524048,229.451767 1303.039673,228.614944 
	C1296.840576,227.126175 1290.030518,227.424377 1283.579590,228.047195 
	C1280.140015,228.379288 1277.679077,231.410294 1277.549927,235.588943 
	C1277.423218,239.690170 1279.266724,242.517715 1282.920288,243.660721 
	C1291.640747,246.388855 1300.508301,248.642883 1309.257202,251.284836 
	C1315.780762,253.254822 1322.400146,255.090332 1328.648682,257.755280 
	C1347.468140,265.781616 1354.241089,288.416443 1343.522461,305.947937 
	C1337.531860,315.746338 1328.345093,320.805481 1317.706787,323.251129 
	C1299.631592,327.406403 1281.608276,327.103607 1264.327881,319.658264 
	C1251.105469,313.961304 1243.450195,303.618622 1241.172607,289.320709 
	C1240.506958,285.141663 1241.536743,283.145142 1246.282349,283.340424 
	C1253.597290,283.641479 1260.945557,283.159607 1268.256592,283.502747 
	C1270.037109,283.586334 1272.875488,285.281097 1273.271973,286.759491 
	C1275.716187,295.872772 1281.838013,300.222290 1290.687256,301.625122 
	C1297.224487,302.661438 1303.617554,302.590546 1310.003662,299.253601 
z"/>
<path fill="#F5CE3E" opacity="1.000000" stroke="none" 
	d="
M1605.991455,211.198883 
	C1606.007446,246.483856 1605.905884,281.292450 1606.157715,316.098511 
	C1606.195679,321.336761 1604.287231,322.835785 1599.567505,322.622223 
	C1593.419800,322.344086 1587.255249,322.089874 1581.108765,322.246918 
	C1576.818359,322.356476 1575.516479,320.556000 1576.010864,316.598755 
	C1576.227905,314.861420 1576.047363,313.074432 1576.047363,309.974274 
	C1572.157959,313.133118 1569.383667,315.579132 1566.416992,317.763702 
	C1549.945068,329.892731 1522.210938,328.294647 1509.297485,314.401215 
	C1502.545776,307.137024 1499.313721,298.238434 1499.112915,288.472198 
	C1498.664429,266.669952 1498.571899,244.860291 1498.351440,223.053482 
	C1498.311035,219.056839 1498.518188,215.050552 1498.306274,211.064911 
	C1498.115723,207.479919 1499.247803,205.960938 1503.098389,206.089905 
	C1510.584473,206.340591 1518.090576,206.329422 1525.577026,206.083282 
	C1529.164185,205.965332 1530.133301,207.275101 1530.102905,210.685287 
	C1529.946777,228.171280 1529.917236,245.659286 1529.991577,263.145966 
	C1530.016235,268.961243 1530.303955,274.789337 1530.783936,280.585693 
	C1531.624512,290.736389 1537.827759,297.753204 1546.736816,299.000549 
	C1557.851685,300.556793 1568.592041,295.366211 1571.826416,286.134857 
	C1573.387451,281.679901 1574.139526,276.732788 1574.195923,271.995880 
	C1574.434204,252.013931 1574.388184,232.025955 1574.169312,212.043213 
	C1574.119751,207.514664 1575.386475,205.790588 1580.089233,206.022186 
	C1587.233521,206.374054 1594.413330,206.291916 1601.566650,206.052689 
	C1605.199341,205.931198 1606.401978,207.375717 1605.991455,211.198883 
z"/>
<path fill="#F5CF3F" opacity="1.000000" stroke="none" 
	d="
M1072.753174,248.335846 
	C1068.152954,226.592499 1049.009277,225.031830 1036.478638,232.366867 
	C1032.234741,234.851196 1028.354492,239.665344 1026.552124,244.289505 
	C1021.310486,257.737396 1020.920715,271.677856 1026.886353,285.137970 
	C1031.554932,295.671417 1039.646606,299.905670 1052.003052,299.236359 
	C1061.390625,298.727814 1068.261353,293.150238 1071.725708,282.812378 
	C1072.695435,279.918365 1073.905518,278.227570 1077.234497,278.278564 
	C1085.397217,278.403656 1093.564453,278.373535 1101.727905,278.261139 
	C1105.646851,278.207214 1106.009399,279.991394 1105.283203,283.339264 
	C1099.832031,308.470520 1081.112427,324.444092 1055.279907,325.709259 
	C1039.391479,326.487396 1024.460083,323.705414 1011.425415,313.790558 
	C998.524597,303.977539 992.429626,290.380829 990.375427,274.903992 
	C987.860718,255.957489 990.613159,237.986664 1003.061584,222.581161 
	C1012.216370,211.251663 1024.507935,205.446274 1038.658813,203.351990 
	C1053.163452,201.205368 1067.259521,202.546326 1080.416382,209.511047 
	C1095.086670,217.276917 1102.696289,229.994629 1105.191406,246.033539 
	C1105.355347,247.087128 1103.939087,249.410736 1103.233032,249.420898 
	C1093.603760,249.559570 1083.969849,249.402802 1074.337769,249.276276 
	C1073.888794,249.270386 1073.445190,248.865341 1072.753174,248.335846 
z"/>
<path fill="#EAAE32" opacity="1.000000" stroke="none" 
	d="
M329.461609,253.525360 
	C331.072296,258.221130 332.771210,263.303406 333.954132,268.503082 
	C337.572388,284.408234 343.783173,299.274933 353.185913,312.496033 
	C360.269592,322.456360 367.912262,332.245300 376.604004,340.790314 
	C396.725616,360.572235 421.337189,372.623322 448.714233,378.881622 
	C468.993927,383.517426 489.610809,386.015930 510.430756,384.903412 
	C537.236816,383.471039 563.654053,379.219635 588.073914,367.579498 
	C599.201355,362.275452 609.507202,354.982880 619.480835,347.635529 
	C624.413757,344.001587 627.741211,338.192352 631.812195,333.381897 
	C632.983948,331.997314 634.215576,330.663422 635.721680,329.154846 
	C633.812866,342.513702 627.705872,354.356354 618.593567,364.185944 
	C611.656494,371.669006 603.140442,377.688232 594.731323,384.641479 
	C587.525452,388.058014 581.044250,391.508881 574.279114,394.262238 
	C558.284912,400.771729 541.434509,403.465302 524.334351,405.263855 
	C498.359253,407.995880 472.582428,407.037109 446.916382,402.410645 
	C428.911804,399.165222 412.030975,392.782196 396.052002,383.937500 
	C369.895721,367.514038 351.496063,344.616516 340.297913,316.019592 
	C332.512970,296.138947 328.571991,275.429352 329.461609,253.525360 
z"/>
<path fill="#EFE1C5" opacity="1.000000" stroke="none" 
	d="
M395.969879,384.317505 
	C412.030975,392.782196 428.911804,399.165222 446.916382,402.410645 
	C472.582428,407.037109 498.359253,407.995880 524.334351,405.263855 
	C541.434509,403.465302 558.284912,400.771729 574.279114,394.262238 
	C581.044250,391.508881 587.525452,388.058014 594.487061,384.876099 
	C599.903870,385.883118 604.959839,386.986359 610.036621,387.983826 
	C622.364807,390.405975 634.747192,392.580688 647.000977,395.330719 
	C649.606689,395.915497 651.758179,398.524200 655.601257,401.252991 
	C650.739746,403.832306 647.409485,406.630035 643.662842,407.399048 
	C631.040039,409.989777 618.315308,412.205261 605.541992,413.906982 
	C592.757874,415.610168 579.878601,416.639862 567.021790,417.739990 
	C559.586853,418.376221 552.117859,418.781372 544.657349,418.920959 
	C521.208618,419.359680 497.755127,419.946381 474.306305,419.841827 
	C458.553192,419.771606 442.766296,419.108765 427.063171,417.852966 
	C401.833954,415.835388 376.451874,414.666290 351.830261,407.955353 
	C348.793610,407.127655 345.654449,406.301270 342.944641,404.789703 
	C341.314880,403.880646 339.303101,401.486542 339.507660,400.051300 
	C339.725006,398.526459 342.174927,396.563507 343.967712,396.141357 
	C356.347076,393.226410 368.812073,390.676300 381.243744,387.982178 
	C386.132751,386.922638 391.006866,385.794464 395.969879,384.317505 
z"/>
<path fill="#F18E2D" opacity="1.000000" stroke="none" 
	d="
M600.013245,199.960480 
	C591.660522,195.556122 590.711975,189.009659 597.680542,182.856155 
	C600.018066,180.791992 602.713501,179.133881 605.239685,177.282471 
	C611.287048,172.850464 613.618530,166.059006 616.768311,159.692642 
	C618.185181,156.828888 620.981262,154.647461 623.484375,152.097382 
	C624.803040,152.810226 625.788818,153.582123 627.071289,154.904236 
	C627.949585,155.606262 628.531189,155.758087 629.112793,155.909927 
	C629.112793,155.909927 629.035034,155.948227 629.180664,156.175079 
	C629.881836,156.597778 630.437317,156.793640 630.992798,156.989502 
	C630.992798,156.989502 631.002441,156.995895 631.160889,157.299774 
	C632.918701,158.374771 634.518127,159.145905 636.117493,159.917053 
	C636.117493,159.917053 636.047485,159.957901 636.223755,160.219711 
	C646.706238,166.019485 657.660156,168.541992 669.395325,168.111694 
	C671.742737,168.025604 674.148071,169.517822 676.526672,170.282303 
	C675.549011,172.190872 674.606262,174.118576 673.575806,175.998215 
	C673.184265,176.712311 672.591064,177.315796 671.728088,178.010468 
	C656.437256,187.822952 639.633972,190.595306 622.261536,190.941925 
	C616.167175,191.063507 610.060059,190.392105 603.955200,190.281403 
	C602.805969,190.260590 601.639587,191.180038 600.481140,191.665588 
	C600.990051,192.439575 601.498962,193.213562 601.846924,194.307037 
	C601.128479,196.404510 600.570862,198.182495 600.013245,199.960480 
z"/>
<path fill="#EAAE32" opacity="1.000000" stroke="none" 
	d="
M488.598938,110.855652 
	C487.213074,114.300339 485.611633,117.920113 483.781525,121.420303 
	C472.700867,142.612625 474.008759,163.804596 483.522583,185.094101 
	C490.661743,201.069733 503.538788,212.213058 515.786804,223.914368 
	C517.376038,225.432648 518.768188,227.157303 521.169434,229.794327 
	C517.824585,230.774567 515.759216,231.756531 513.624512,231.942474 
	C502.382050,232.921814 491.574677,230.194778 480.461456,227.561691 
	C486.595795,224.396164 488.293365,220.869354 485.421204,214.219894 
	C483.463135,209.686752 480.644836,205.477463 477.870911,201.352173 
	C459.813599,174.497864 464.711548,131.595337 488.598938,110.855652 
z"/>
<path fill="#EA8030" opacity="1.000000" stroke="none" 
	d="
M600.227478,200.002640 
	C600.570862,198.182495 601.128479,196.404510 602.313416,194.307953 
	C612.633911,193.995621 622.353088,194.433853 632.010742,193.851776 
	C638.151611,193.481659 644.202209,191.601425 650.291260,190.388107 
	C652.540833,189.939880 654.784546,189.462341 657.416382,188.998322 
	C659.061707,189.159607 660.321655,189.320724 661.581604,189.481857 
	C661.649109,190.032806 661.716553,190.583771 661.783997,191.134735 
	C656.447449,193.099167 651.153198,195.190536 645.761658,196.990448 
	C640.901550,198.612946 635.934875,199.916306 631.015198,201.360443 
	C630.548767,201.512848 630.082275,201.665253 628.935852,201.535080 
	C623.184937,201.905472 618.114014,202.558441 613.043091,203.211395 
	C612.658997,203.463196 612.274841,203.715012 611.557983,204.061859 
	C608.313232,203.291122 605.401306,202.425339 602.123535,201.065338 
	C601.464417,200.402954 601.171143,200.234787 600.877869,200.066620 
	C600.877869,200.066620 600.441711,200.044800 600.227478,200.002640 
z"/>
<path fill="#E0773A" opacity="1.000000" stroke="none" 
	d="
M631.406982,201.456741 
	C635.934875,199.916306 640.901550,198.612946 645.761658,196.990448 
	C651.153198,195.190536 656.447449,193.099167 661.783997,191.134735 
	C661.716553,190.583771 661.649109,190.032806 661.581604,189.481857 
	C660.321655,189.320724 659.061707,189.159607 657.471619,188.652206 
	C659.555176,186.979233 662.106262,185.848312 664.347290,184.275650 
	C667.064880,182.368561 669.520630,180.088394 672.089722,177.969681 
	C672.591064,177.315796 673.184265,176.712311 673.575806,175.998215 
	C674.606262,174.118576 675.549011,172.190872 676.526672,170.282303 
	C674.148071,169.517822 671.742737,168.025604 669.395325,168.111694 
	C657.660156,168.541992 646.706238,166.019485 636.217041,160.179764 
	C647.739990,164.495789 659.683594,167.403610 672.475281,166.841232 
	C678.567383,166.573395 680.857910,172.107666 677.407410,178.053055 
	C673.448608,184.874283 667.552124,190.088287 660.321167,192.837280 
	C651.049255,196.362213 641.326965,198.702408 631.406982,201.456741 
z"/>
<path fill="#E0773A" opacity="1.000000" stroke="none" 
	d="
M613.469482,203.314362 
	C618.114014,202.558441 623.184937,201.905472 628.566528,201.481354 
	C623.883423,202.279251 618.889587,202.848267 613.469482,203.314362 
z"/>
<path fill="#EAAE32" opacity="1.000000" stroke="none" 
	d="
M400.626038,240.869415 
	C398.495758,241.260712 396.073181,241.431976 393.373474,241.356750 
	C395.508820,240.956635 397.921265,240.803009 400.626038,240.869415 
z"/>
<path fill="#EAAE32" opacity="1.000000" stroke="none" 
	d="
M466.677368,227.906097 
	C465.509827,228.299332 464.104309,228.498672 462.444214,228.512787 
	C463.606201,228.122437 465.022797,227.917328 466.677368,227.906097 
z"/>
<path fill="#E0773A" opacity="1.000000" stroke="none" 
	d="
M635.972656,159.621979 
	C634.518127,159.145905 632.918701,158.374771 631.165894,157.302750 
	C632.617615,157.776886 634.222717,158.551910 635.972656,159.621979 
z"/>
<path fill="#EAAE32" opacity="1.000000" stroke="none" 
	d="
M408.651855,239.851685 
	C408.389191,240.210159 407.925171,240.398193 407.331940,240.455353 
	C407.618683,240.110062 408.034576,239.895645 408.651855,239.851685 
z"/>
<path fill="#EAAE32" opacity="1.000000" stroke="none" 
	d="
M387.662476,240.125092 
	C387.301178,240.342926 386.801025,240.343002 386.222229,240.192902 
	C386.603577,239.997559 387.063629,239.952438 387.662476,240.125092 
z"/>
<path fill="#EAAE32" opacity="1.000000" stroke="none" 
	d="
M420.611450,236.757523 
	C420.300262,237.225891 419.745453,237.559021 418.907471,237.890549 
	C419.205505,237.466736 419.786682,237.044510 420.611450,236.757523 
z"/>
<path fill="#EAAE32" opacity="1.000000" stroke="none" 
	d="
M443.657349,230.833450 
	C443.409760,231.200272 442.951782,231.413452 442.356689,231.503632 
	C442.628723,231.147034 443.037842,230.913422 443.657349,230.833450 
z"/>
<path fill="#E0773A" opacity="1.000000" stroke="none" 
	d="
M630.843994,156.728241 
	C630.437317,156.793640 629.881836,156.597778 629.185425,156.131989 
	C629.594788,156.063705 630.144958,156.265350 630.843994,156.728241 
z"/>
<path fill="#E0773A" opacity="1.000000" stroke="none" 
	d="
M628.955322,155.645782 
	C628.531189,155.758087 627.949585,155.606262 627.202209,155.194824 
	C627.623596,155.084030 628.210693,155.232834 628.955322,155.645782 
z"/>
<path fill="#EAAE32" opacity="1.000000" stroke="none" 
	d="
M382.691223,239.128220 
	C382.886261,239.244141 382.534058,239.481110 382.534058,239.481110 
	C382.534058,239.481110 382.176025,239.305771 382.109528,239.171219 
	C382.043030,239.036667 382.496185,239.012299 382.691223,239.128220 
z"/>
<path fill="#EAAE32" opacity="1.000000" stroke="none" 
	d="
M447.702301,230.175507 
	C447.776489,230.492477 447.581329,230.586746 447.228302,230.412262 
	C447.138824,230.326431 447.501373,230.135696 447.702301,230.175507 
z"/>
<path fill="#EAAE32" opacity="1.000000" stroke="none" 
	d="
M454.708832,229.121765 
	C454.915894,229.161316 454.667450,229.466980 454.667450,229.466980 
	C454.667450,229.466980 454.303162,229.465302 454.213562,229.367386 
	C454.123993,229.269470 454.501770,229.082199 454.708832,229.121765 
z"/>
<path fill="#EAAB2D" opacity="1.000000" stroke="none" 
	d="
M460.262665,360.891724 
	C447.697144,358.216919 436.493835,353.349579 426.135162,346.555206 
	C417.145660,340.658966 409.591156,333.255219 404.126556,323.962128 
	C402.897552,321.872162 402.864410,319.078949 403.433685,316.594055 
	C407.867981,320.686554 411.986664,325.201660 416.795380,328.792786 
	C431.597717,339.847107 448.357239,345.833160 466.727203,348.167023 
	C483.331268,350.276520 499.232330,348.252289 514.345886,341.605316 
	C527.843811,335.668976 539.125732,326.869415 544.524048,312.300842 
	C544.608643,312.072601 545.046143,311.975159 546.198425,311.305908 
	C543.916626,321.263641 541.620911,330.313721 535.508850,338.035309 
	C523.668091,352.993927 507.893860,360.588776 489.258972,361.864838 
	C479.797241,362.512756 470.209961,361.326691 460.262665,360.891724 
z"/>
<path fill="#F8E388" opacity="1.000000" stroke="none" 
	d="
M530.656860,278.252655 
	C508.783936,262.056488 485.221741,261.995941 460.657471,269.176544 
	C450.485992,272.149902 440.331116,275.505188 429.928650,277.279877 
	C417.360138,279.424042 404.727844,278.603302 393.036957,272.464844 
	C391.367340,271.588165 389.861542,270.399445 388.279938,269.355133 
	C388.462616,268.812622 388.645264,268.270111 388.827942,267.727600 
	C392.388519,268.461914 395.938171,269.254822 399.511566,269.920166 
	C413.217285,272.472015 426.578522,270.993774 439.758118,266.658752 
	C450.327545,263.182251 460.841980,259.364105 471.643555,256.807953 
	C488.689331,252.774109 505.429413,253.996948 520.477844,263.921875 
	C524.791382,266.766815 528.186646,271.061096 531.771545,274.906555 
	C532.499451,275.687378 534.859558,278.094757 530.656860,278.252655 
z"/>
<path fill="#452F1B" opacity="1.000000" stroke="none" 
	d="
M580.350647,139.512848 
	C584.505188,143.789566 585.606506,148.794098 583.059937,153.456924 
	C581.528137,156.261688 578.099854,158.782562 574.990295,159.799179 
	C570.216064,161.360062 565.347473,158.288071 563.194214,153.725983 
	C560.943176,148.956772 562.085022,142.913101 565.872314,139.550735 
	C569.727844,136.127777 574.697021,136.031006 580.350647,139.512848 
M575.069763,142.173706 
	C575.594482,143.843491 575.787781,145.777084 576.804810,147.054993 
	C577.219421,147.575989 579.609375,146.978806 580.726624,146.286682 
	C581.251038,145.961792 581.275024,143.443405 580.862000,143.235123 
	C579.218689,142.406250 577.313904,142.095749 575.069763,142.173706 
z"/>
<path fill="#E9AC2B" opacity="1.000000" stroke="none" 
	d="
M405.519073,309.960388 
	C394.796997,301.856323 387.245544,292.078735 385.658997,278.472229 
	C393.437469,293.262817 405.757599,302.871216 420.950378,309.252899 
	C420.802216,309.888550 420.654083,310.524231 420.505920,311.159882 
	C415.641571,310.779724 410.777191,310.399536 405.519073,309.960388 
z"/>
<path fill="#F18E2D" opacity="1.000000" stroke="none" 
	d="
M601.009888,200.282837 
	C601.171143,200.234787 601.464417,200.402954 601.871216,200.803894 
	C601.703796,200.857483 601.422791,200.678284 601.009888,200.282837 
z"/>
<path fill="none" opacity="1.000000" stroke="none" 
	d="
M798.259033,231.586945 
	C808.916199,237.640717 812.101990,247.522079 812.397095,258.339935 
	C812.602783,265.880188 812.018188,273.652405 810.328491,280.985016 
	C807.753296,292.160675 799.574219,297.865265 788.382019,298.911865 
	C777.493225,299.930115 768.995667,295.506348 764.232910,285.663361 
	C757.156372,271.038605 756.921814,255.917206 764.513550,241.500824 
	C771.159668,228.880264 785.005554,225.163956 798.259033,231.586945 
z"/>
<path fill="none" opacity="1.000000" stroke="none" 
	d="
M1711.172119,265.934509 
	C1710.980225,274.518982 1709.722046,282.464752 1705.041870,289.219452 
	C1694.806274,303.991852 1671.351562,302.272980 1663.079956,285.783417 
	C1655.124390,269.923584 1656.015259,253.671967 1665.459229,238.675262 
	C1674.745850,223.928207 1697.828735,225.698837 1706.101929,241.340363 
	C1710.085449,248.871735 1711.629272,256.963898 1711.172119,265.934509 
z"/>
<path fill="none" opacity="1.000000" stroke="none" 
	d="
M1406.295776,295.829895 
	C1396.612915,288.776306 1393.682373,278.569214 1393.490234,267.982941 
	C1393.348877,260.197601 1394.948975,252.085953 1397.335938,244.619370 
	C1400.809082,233.755417 1409.572021,228.521393 1420.700684,228.372910 
	C1432.289795,228.218277 1440.860474,233.793655 1445.230225,244.713150 
	C1450.536743,257.973419 1450.490845,271.469666 1445.013672,284.630493 
	C1438.874146,299.383209 1421.932007,304.230804 1406.295776,295.829895 
z"/>
<path fill="#D65F1F" opacity="1.000000" stroke="none" 
	d="
M671.728088,178.010468 
	C669.520630,180.088394 667.064880,182.368561 664.347290,184.275650 
	C662.106262,185.848312 659.555176,186.979233 657.086182,188.652039 
	C654.784546,189.462341 652.540833,189.939880 650.291260,190.388107 
	C644.202209,191.601425 638.151611,193.481659 632.010742,193.851776 
	C622.353088,194.433853 612.633911,193.995621 602.474365,193.988464 
	C601.498962,193.213562 600.990051,192.439575 600.481140,191.665588 
	C601.639587,191.180038 602.805969,190.260590 603.955200,190.281403 
	C610.060059,190.392105 616.167175,191.063507 622.261536,190.941925 
	C639.633972,190.595306 656.437256,187.822952 671.728088,178.010468 
z"/>
<path fill="#FBFBF4" opacity="1.000000" stroke="none" 
	d="
M575.287842,141.883484 
	C577.313904,142.095749 579.218689,142.406250 580.862000,143.235123 
	C581.275024,143.443405 581.251038,145.961792 580.726624,146.286682 
	C579.609375,146.978806 577.219421,147.575989 576.804810,147.054993 
	C575.787781,145.777084 575.594482,143.843491 575.287842,141.883484 
z"/>
</svg>